PathFileType	4	(X/Y/Z)	36_2_rein_90_p0_0-240_filt_butterworth.trc
DataRate	CameraRate	NumFrames	NumMarkers	Units	OrigDataRate	OrigDataStartFrame	OrigNumFrames
43.0	43.0	6	27	m	43.0	210	240
Frame#	Time	RHip			RKnee			RAnkle			RBigToe			RSmallToe			RHeel			LHip			LKnee			LAnkle			LBigToe			LSmallToe			LHeel			Neck			Head			Nose			RShoulder			RElbow			RWrist			RThumb			RIndex			RPinky			LShoulder			LElbow			LWrist			LThumb			LIndex			LPinky			
		X1	Y1	Z1	X2	Y2	Z2	X3	Y3	Z3	X4	Y4	Z4	X5	Y5	Z5	X6	Y6	Z6	X7	Y7	Z7	X8	Y8	Z8	X9	Y9	Z9	X10	Y10	Z10	X11	Y11	Z11	X12	Y12	Z12	X13	Y13	Z13	X14	Y14	Z14	X15	Y15	Z15	X16	Y16	Z16	X17	Y17	Z17	X18	Y18	Z18	X19	Y19	Z19	X20	Y20	Z20	X21	Y21	Z21	X22	Y22	Z22	X23	Y23	Z23	X24	Y24	Z24	X25	Y25	Z25	X26	Y26	Z26	X27	Y27	Z27	
210	4.883720930232558	0.3306120233770363	0.5359488003300956	-0.10153767967849929	0.36307855029541297	0.6628149772655403	0.3392487618099155	0.3974695066078041	0.7211531592520302	0.711235796877253	0.3623760707361322	0.5485878787306899	0.7568114417250152	0.42548311423524887	0.5582057393670662	0.7446025799649577	0.3671825663137058	0.8108625459564748	0.7681506148131297	0.14175616552813772	0.517927933569454	-0.09172858872587547	0.15564479241432078	0.6611555534451973	0.37460769133912825	0.1774851578515322	0.715649939206247	0.7418016676256914	0.18971133401041326	0.5103869326528605	0.7520946351183802	0.13985580800051142	0.5478307325977921	0.7587209309223961	0.19165163564743282	0.7826416942609955	0.8003976379854484	0.20024275521903467	0.49333340011621357	-0.5889830906149225	0.19443648488347756	0.434423015304924	-0.8287328882757131	0.20954449803133543	0.36804501445106774	-0.7029131065607258	0.34727256602851353	0.522214803336391	-0.5013655597497952	0.42315538643326783	0.5060857592584611	-0.24045407314061779	0.42675362843129505	0.42743483459513887	-0.015065432970743088	0.358203246185158	0.40189184388171467	0.09551380677502969	0.38927990300596405	0.3774341384218879	0.11843679959203637	0.4406801372984306	0.4258885454818033	0.11627626498320129	0.04414225572310539	0.5097817089818956	-0.4869453391934767	0.03173706065856639	0.4864709375260874	-0.23100165590983018	0.08063743160010609	0.4220455573641841	0.024787375981251088	0.11850473273448339	0.4298717616345894	0.11702148507185131	0.10533212009529869	0.41707464274434386	0.13898170398342785	0.05396612761881481	0.4832567338385402	0.15585852892666147
211	4.906976744186046	0.33021504818326497	0.5365503978471006	-0.10208783251521168	0.36301980542016205	0.667727355768754	0.3384294777877609	0.39737921559213735	0.721177320653653	0.7129369035875834	0.3625544031898063	0.552381768472176	0.7566296108420643	0.42563518230860037	0.5585319290829341	0.7446721118192782	0.36850679587005564	0.8122272130577222	0.7681556872495142	0.14191538104320645	0.5186702556350955	-0.09132462677792885	0.1541102019003551	0.6611172820273867	0.3661776923764068	0.17762796345909532	0.7157679312208984	0.7419334990056472	0.19010365397602808	0.5098347815332605	0.7503548260516879	0.1399093680475442	0.5472880311764701	0.7584076640893436	0.19235240198986947	0.7861016015278389	0.7999295236095586	0.20018410278593254	0.49342475446183365	-0.5859919798653952	0.19293597415614436	0.4379746213492514	-0.8287011173961684	0.2081366532666486	0.3712748365971019	-0.703050287749065	0.3472004482246604	0.5231140995080351	-0.5010674081365032	0.41928983422857535	0.49363270919299784	-0.2416058141219704	0.4084668733599828	0.40343257998772675	-0.020260971995516096	0.33442588226951664	0.36894770177287395	0.08356652070448527	0.3615733602743563	0.3308110331499014	0.09491243470934282	0.41358062097236836	0.3876566211236677	0.10050008493994476	0.04448705123966097	0.5093987031363378	-0.48538557327819026	0.034614753718137554	0.48757817789770197	-0.23033021417198082	0.09027548646259753	0.4169460978489723	0.02370544088144591	0.1399506456596571	0.4131866768409114	0.10957879868536934	0.12329513826195236	0.39599885771570553	0.13265088240456296	0.07907190815089571	0.4649118731614564	0.1531022160411273
212	4.930232558139535	0.33076495015446816	0.5376129214715757	-0.10202528820195661	0.3621689361052525	0.6718385476065	0.3398705505467278	0.3971459579781471	0.72130383499788	0.7152064455718823	0.3621768115313948	0.5521761817098383	0.756260565031601	0.4254334789071633	0.5576942169955951	0.7446849241850956	0.3705246592829034	0.8140135540231882	0.7683154412339908	0.1421117182792869	0.5192284897407451	-0.090531038045397	0.14990974392639875	0.6614769019731046	0.3522890884001997	0.1787642152389042	0.715689281839142	0.7403516645164003	0.19182113586131344	0.5104740251771613	0.7486290955272581	0.1398896357608638	0.5469992023503781	0.758191704508707	0.19203226791708716	0.7862439670786465	0.7982421022501388	0.20014896492444254	0.49357939577942217	-0.5832548558093245	0.19125066155180345	0.44366389815208174	-0.8287297159409701	0.206294057391438	0.37703172587964934	-0.7028927978187068	0.347380824531698	0.5227230893006078	-0.5011977788348352	0.4129367126295908	0.4745965915850072	-0.24441432411333136	0.3818483826342396	0.37391256202585355	-0.026247728607958844	0.30259152299033043	0.3343579558931018	0.07141701455124065	0.32520088332313213	0.2958376504529121	0.07778394919162904	0.371748570806045	0.3505952000165508	0.08518012982298923	0.0460248601154629	0.510359793289642	-0.4840172307258335	0.03734030325665143	0.48520543656809334	-0.22819538900091982	0.1071774600617828	0.4084761419267712	0.023332686671505426	0.1733519225092559	0.383968357496867	0.09544417001562706	0.1592216713948928	0.364198996571871	0.12181441955811138	0.12253616586783667	0.42707059772081724	0.1430061180385937
213	4.953488372093023	0.3304508828715455	0.5384608949438883	-0.10273273427914048	0.3615436475951035	0.6716644460075656	0.342425454592252	0.3968037805519269	0.7216412439033913	0.7156172122088644	0.36129497589985143	0.5482091743289783	0.7547647302422044	0.42524484809526564	0.5573961660805714	0.7445783591147558	0.37164507428949806	0.8147441249546947	0.7674687836535226	0.14215961089876586	0.5195126130183119	-0.09055057955814316	0.14480385218583744	0.6623354495755533	0.3424424045871953	0.18009140528635098	0.7149305947939444	0.7375257126387351	0.19465193978824513	0.5104673901537786	0.7472434739788627	0.13981278907965183	0.5474446250404565	0.7585161382013256	0.1916606390924177	0.7817066140932543	0.7952320769628418	0.20012819902280887	0.4937267313793536	-0.5820537462259694	0.1903838387299425	0.44726068404263497	-0.8286771377087522	0.20547369452425235	0.38113958390437064	-0.7019443777959306	0.34731157367712523	0.5229291059607392	-0.5023251550868005	0.4060841246579542	0.45790172433221116	-0.24870238055465627	0.36045128532085385	0.3547720266532643	-0.030778169223997263	0.27739220527305697	0.31239364842976086	0.06063872075927537	0.29377325019641765	0.2847621082713301	0.07199525945413614	0.32915988004762015	0.322960375158313	0.07717538177645317	0.048813804889290595	0.5145848906941225	-0.48395315014834	0.04242599273798174	0.4756790102173318	-0.22668560368079416	0.13094909796609439	0.3878107337762168	0.021243546784059868	0.20829367617119626	0.36136065609443124	0.07610152770791735	0.20528435966905675	0.3453626535271962	0.10937693839749944	0.17238500789515626	0.392998820753202	0.13222911240502536
214	4.976744186046512	0.32970963338579307	0.5389076297005442	-0.10349112455459777	0.36223746120386147	0.6704993663932546	0.3437792698963408	0.3964651495045688	0.7220859101169047	0.714076089112025	0.3604384623907922	0.5445266671768182	0.7523491814594571	0.425403417396463	0.5572432957658625	0.7444795741900745	0.3715776988628348	0.8140429146580068	0.7648892654298659	0.1418731342386779	0.5200155354781741	-0.08950909439271362	0.14229645090587512	0.6632286752318721	0.3423293484596004	0.18023412218779922	0.7139225475894633	0.7371042497955154	0.19690047659690463	0.5103188460813461	0.7472947042997466	0.139974223465367	0.5483019814589476	0.7595684425700966	0.19172789121479256	0.7774058865999405	0.7937530009274192	0.2001117054702031	0.4938445233747857	-0.5822309545336966	0.1901400332839734	0.4476517878053873	-0.8287510991773206	0.20556788723166045	0.38181411471534016	-0.7003929731326984	0.3467623890674276	0.5224783384302636	-0.5040833994418502	0.40071195620852046	0.447425615151317	-0.25193734925147937	0.3478706651095576	0.34147971846665515	-0.03605273921026807	0.2587671010006022	0.2906651067146464	0.044969593057872514	0.2695246214553778	0.281017972026134	0.0660467816685597	0.2964070052161134	0.30351229765811655	0.07709765486750168	0.051089432163782963	0.520579466637194	-0.4841612591428396	0.05090026963353424	0.4575655375021443	-0.22820079118131964	0.15407636059662078	0.35928948458098375	0.014215384328329576	0.23786550552876612	0.3486836889825864	0.055023660630536306	0.2468001074378917	0.33793522879270244	0.09306315845130975	0.20935914018498336	0.36616433121201986	0.11859431894207315
215	5.0	0.32983243797583056	0.5395734230282117	-0.10284889367942864	0.3631858951965616	0.6705982941860789	0.34284584612319036	0.39629641988121267	0.722470156622847	0.7127495600940472	0.3594768937382086	0.5449733649599376	0.7507093261958773	0.42607173602920034	0.5568091039739734	0.7445752880448608	0.3712091800620259	0.812630981816148	0.7637854800923355	0.14130377973037447	0.5205173405488951	-0.08601335066599071	0.14394097037006504	0.6635515990000318	0.347150243597043	0.1798175232419988	0.7138486076574069	0.740269195070506	0.19786883834835953	0.5104991488477151	0.7479355274115367	0.14047026298177184	0.5488241774874929	0.7607757350088702	0.1916101884538312	0.7755220338833125	0.7968507836299946	0.200039426499244	0.49396811415941155	-0.583403931517271	0.18890397208278914	0.44706527606657476	-0.8294513116661443	0.2049285219685694	0.38056060616433335	-0.6991852199517864	0.3454648623886159	0.5188321591573282	-0.5052849737223122	0.3975977962946528	0.4402714004469542	-0.2516577183330442	0.33697587585490985	0.31610206231854776	-0.04677815987464183	0.23908163589739156	0.2597710677674789	0.025380521720076606	0.2468200415653809	0.26978844866281027	0.054025557238769166	0.27841760613145017	0.29431636545939155	0.07937673486286091	0.051475809844539144	0.5258726753980163	-0.4839438895157423	0.06036039446602066	0.43442100984615933	-0.2321126850247076	0.17036910565656394	0.3327271879209228	-0.0030016296994788126	0.2559984555464512	0.328367395374601	0.03433525666704036	0.2688992107410702	0.31763704627108347	0.06911876758393655	0.22715422153077916	0.32461435888893375	0.09304762168631522
